<?xml version="1.0" encoding="utf-8"?>
<!-- Generator: Adobe Illustrator 17.1.0, SVG Export Plug-In . SVG Version: 6.00 Build 0)  -->
<!DOCTYPE svg PUBLIC "-//W3C//DTD SVG 1.1//EN" "http://www.w3.org/Graphics/SVG/1.1/DTD/svg11.dtd">
<svg version="1.1" id="Capa_1" xmlns="http://www.w3.org/2000/svg" xmlns:xlink="http://www.w3.org/1999/xlink" x="0px" y="0px"
	 viewBox="0 0 300 82.3" enable-background="new 0 0 300 82.3" xml:space="preserve">
<g>
	<path fill="#FFFFFF" d="M68,14L54.3,62.9H41.5l-7.3-35.1l-7.8,35.1H13.5L0,14h12.5l7.8,34l7-34h13l6.8,34l6.7-29.4
		c1-3.1,2.9-4.6,6-4.6H68z"/>
	<path fill="#FFFFFF" d="M78.2,0c4.1,0,6,2.1,5.9,6v3.6H71.7V0H78.2z M78.2,14c4.1,0,5.9,2,5.9,5.9v43.1H71.7V14H78.2z"/>
	<path fill="#FFFFFF" d="M126.7,62.9c-4.1-0.3-6.2-2.3-6.2-6.2v-25c-0.3-5-3.1-7.6-8.5-7.6c-5.5,0-8.3,2.4-8.3,7.6v31.4H91.1V34.1
		c0-14,7.2-21,21.1-21s20.8,7,20.8,21v28.8H126.7z"/>
	<path fill="#FFFFFF" d="M160.8,64.1c-14.8,0-22.4-8.5-22.8-25.4c0-16.7,7.5-25.2,22.6-25.5c11.9,0,18.9,5.2,21,15.9h-13.5
		c-1.5-3.4-4.1-5-8-5c-6.5,0-9.8,4.9-9.8,14.6s3.4,14.6,10.2,14.5c2.9,0,5.4-1.1,7.5-3.6c1.1-1.1,2.6-1.8,4.2-1.8h9.3
		C179.5,57.9,172.2,64.4,160.8,64.1z"/>
	<path fill="#FFFFFF" d="M200.5,6v56.9h-12.4V0h6.3C197.9,0,200.5,2.8,200.5,6z"/>
	<path fill="#FFFFFF" d="M220.2,26.7h-12.4c1.5-9.1,7.8-13.5,19.2-13.5c13.5,0,20.3,4.4,20.7,13.5v16.7c0,13.5-8.1,19.5-21.5,20.5
		c-11.7,1-20-4.6-20-15.4c0.3-11.7,8.8-15,21.3-16.1c5.2-0.7,8-2.3,8-4.9c-0.3-2.8-2.9-4.2-8-4.2C223.3,23.3,220.8,24.4,220.2,26.7z
		 M235.8,42.8v-4.6c-2.9,1.1-6.2,2.3-9.8,2.9c-4.9,1-7.5,3.3-7.5,6.8c0.3,3.9,2.3,5.7,6.2,5.7C231.5,53.8,235.8,49.8,235.8,42.8z"/>
	<path fill="#FFFFFF" d="M266,76.1c0,4.1-2.1,6.2-6.2,6.2h-6.2v-47c0.7-14.6,8.3-22,22.9-22c15.1,0,22.8,8.3,22.8,24.7
		c0,16.7-6.5,25.4-19.5,25.7c-6.2,0-10.7-2.4-13.8-7.6V76.1z M276.4,52.8c6.7,0,10.1-4.7,10.4-14.1c0-9.9-3.6-14.8-10.6-14.8
		c-7,0-10.4,4.9-10.2,14.8C266.3,48.1,269.8,52.8,276.4,52.8z"/>
</g>
</svg>
